<svg xmlns="http://www.w3.org/2000/svg" xmlns:svg="http://www.w3.org/2000/svg" xmlns:xlink="http://www.w3.org/1999/xlink" version="1.0" height="740pt" width="683.3333333333331pt" viewBox="475.0000000000001 137 691.3333333333331 746" ><defs><style type="text/css">
            @font-face {
                font-family: 'lt_regular';
                src: url('https://app.creately.com/diagram/assets/fonts/lato/lt-regular-webfont.woff2') format('woff2'),
                    url('https://app.creately.com/diagram/assets/fonts/lato/lt-regular-webfont.woff') format('woff');
                font-weight: normal;
                font-style: normal;
            }
            @font-face {
                font-family: 'noto_regular';
                src: url('https://app.creately.com/diagram/assets/fonts/noto/noto-regular.woff') format('woff'),
                     url('https://app.creately.com/diagram/assets/fonts/noto/noto-regular.woff2') format('woff2');
                font-weight: normal;
                font-style: normal;
            }
        p {
            margin: 0;
        }
        </style></defs><defs><style>
            span{ display: inline-block; }
        </style></defs><g id="PuwdeiX5GLm"><g transform="translate(480.0000000000001 150)"><rect x="0" y="0" width="113.33333333333329" height="28.4" fill="rgb(255,255,255)" stroke="#08415F" stroke-width="2" stroke-linecap="round" stroke-linejoin="round" stroke-dasharray="0 0"/><path d="M 56.66666666666664,28.4 L 56.66666666666664,710" fill="rgb(255,255,255)" stroke="#08415F" stroke-width="2" stroke-linecap="round" stroke-linejoin="round" stroke-dasharray="3 3"/><rect x="0" y="0" width="113.33333333333329" height="710" fill="rgba(255,255,255,0.01)" stroke="rgba(255,255,255,0.01)" stroke-width="2" stroke-linecap="round" stroke-linejoin="round" stroke-dasharray="3 3"/></g><g transform="translate(507.78166666666675, 155) rotate(0, 28.885, 0)" width="57.77" height="18.4"><text text-decoration="none" x="0.38500000000000156" fill="#08415F" font-weight="bold" font-size="10pt" font-family="lt_regular"  y="17">Employee</text><text text-decoration="none" x="57.385000000000005" fill="#4b4b4b" font-size="10pt" font-family="noto_regular"  y="17"></text></g></g><g id="r3R7nIdpp3m"><g transform="translate(1050 149.99999999999997)"><rect x="0" y="0" width="113.33333333333329" height="28.4" fill="rgb(255,255,255)" stroke="#08415F" stroke-width="2" stroke-linecap="round" stroke-linejoin="round" stroke-dasharray="0 0"/><path d="M 56.66666666666664,28.4 L 56.66666666666664,710" fill="rgb(255,255,255)" stroke="#08415F" stroke-width="2" stroke-linecap="round" stroke-linejoin="round" stroke-dasharray="3 3"/><rect x="0" y="0" width="113.33333333333329" height="710" fill="rgba(255,255,255,0.01)" stroke="rgba(255,255,255,0.01)" stroke-width="2" stroke-linecap="round" stroke-linejoin="round" stroke-dasharray="3 3"/></g><g transform="translate(1087.6266666666666, 154.99999999999997) rotate(0, 19.04, 0)" width="38.08" height="18.4"><text text-decoration="none" x="0.5399999999999991" fill="#08415F" font-weight="bold" font-size="10pt" font-family="lt_regular"  y="17">Admin</text><text text-decoration="none" x="37.54" fill="#4b4b4b" font-size="10pt" font-family="noto_regular"  y="17"></text></g></g><g id="C6UyXoD43LH"><g transform="translate(520 840)"><path d="M 0,0 L 30,30 M 30,0 L 0,30" fill="rgb(255,255,255)" stroke="#08415F" stroke-width="2" stroke-linecap="round" stroke-linejoin="round" stroke-dasharray="0 0"/><rect x="0" y="0" width="30" height="30" fill="rgba(255,255,255,0.01)" stroke="rgba(255,255,255,0.01)" stroke-width="2" stroke-linecap="round" stroke-linejoin="round" stroke-dasharray="0 0"/></g></g><g id="t0ue6chzJbc"><g transform="translate(810 850)"><path d="M 0,0 L 30,30 M 30,0 L 0,30" fill="rgb(255,255,255)" stroke="#08415F" stroke-width="2" stroke-linecap="round" stroke-linejoin="round" stroke-dasharray="0 0"/><rect x="0" y="0" width="30" height="30" fill="rgba(255,255,255,0.01)" stroke="rgba(255,255,255,0.01)" stroke-width="2" stroke-linecap="round" stroke-linejoin="round" stroke-dasharray="0 0"/></g></g><g id="Kpg0lk6AEvN"><g transform="translate(1090 850)"><path d="M 0,0 L 30,30 M 30,0 L 0,30" fill="rgb(255,255,255)" stroke="#08415F" stroke-width="2" stroke-linecap="round" stroke-linejoin="round" stroke-dasharray="0 0"/><rect x="0" y="0" width="30" height="30" fill="rgba(255,255,255,0.01)" stroke="rgba(255,255,255,0.01)" stroke-width="2" stroke-linecap="round" stroke-linejoin="round" stroke-dasharray="0 0"/></g></g><g id="d6Fz5fkrFtS"><g transform="translate(529.9999999999998 180.00000000000003)"><rect x="0" y="0" width="20" height="630.0000000000001" fill="rgb(36,175,175)" stroke="#24AFAF" stroke-width="2" stroke-linecap="round" stroke-linejoin="round"/></g></g><g id="pr79C9fS1Nw"><g transform="translate(809.9999999999999 180.00000000000006)"><rect x="0" y="0" width="20" height="629.9999999999999" fill="rgb(36,175,175)" stroke="#24AFAF" stroke-width="2" stroke-linecap="round" stroke-linejoin="round"/></g></g><g id="yTsuCVdAIGF"><g transform="translate(1099.9999999999995 179.99999999999994)"><rect x="0" y="0" width="20" height="630.0000000000001" fill="rgb(36,175,175)" stroke="#24AFAF" stroke-width="2" stroke-linecap="round" stroke-linejoin="round"/></g></g><g id="zcvLh701U5K"><mask id="328b3" x="536" y="216" width="288" height="28" maskUnits="userSpaceOnUse"><rect x="536" y="216" width="288" height="28" fill="white" />undefinedundefinedundefined<rect x="647.1744929914948" y="217.80000000000007" width="91.86" height="24.4" fill="black" /></mask><g mask="url(#328b3)"><path d="M 550,230 L 669.9999999999998,230.00000000000003 Q 670,230.00000000000003 680,230 Q 689.9999999999995,230.00000000000006 689.9999999999998,230.00000000000006 L 810,230" fill="none" stroke="#004291" stroke-width="2" stroke-linecap="round" stroke-linejoin="round" stroke-dasharray="0 0"/><path d="M 810,230 L 803.0434782608696,223.50282485875707 M 810,230 L 803.0434782608696,236.49717514124293 Z" fill="rgb(255,255,255)" stroke="#004291" stroke-width="2" stroke-linecap="round" stroke-linejoin="round"/></g>undefinedundefinedundefined<g transform="translate(650.1744929914948, 220.80000000000007)" width="85.86" height="18.4"><text text-decoration="none" x="1.4299999999999997" fill="#4b4b4b" font-size="10pt" font-family="lt_regular"  y="17">provide&#160;</text><text text-decoration="none" x="47.43" fill="#4b4b4b" font-size="10pt" font-family="lt_regular"  y="17">details</text><text text-decoration="none" x="84.43" fill="#4b4b4b" font-size="10pt" font-family="noto_regular"  y="17"></text></g></g><g id="G8JBmc4q9lH"><mask id="55470" x="816" y="216" width="298" height="28" maskUnits="userSpaceOnUse"><rect x="816" y="216" width="298" height="28" fill="white" />undefined<rect x="919.9182955857748" y="217.79999999999995" width="91.86" height="24.4" fill="black" /></mask><g mask="url(#55470)"><path d="M 830,230 L 954.9999999999998,230.00000000000006 Q 955,230.00000000000006 965,230 Q 974.9999999999995,229.99999999999994 974.9999999999998,229.99999999999994 L 1100,230" fill="none" stroke="#004291" stroke-width="2" stroke-linecap="round" stroke-linejoin="round" stroke-dasharray="0 0"/><path d="M 1100,230 L 1093.0434782608695,223.50282485875707 M 1100,230 L 1093.0434782608695,236.49717514124293 Z" fill="rgb(255,255,255)" stroke="#004291" stroke-width="2" stroke-linecap="round" stroke-linejoin="round"/></g>undefined<g transform="translate(922.9182955857748, 220.79999999999995)" width="85.86" height="18.4"><text text-decoration="none" x="1.4299999999999997" fill="#4b4b4b" font-size="10pt" font-family="lt_regular"  y="17">provide&#160;</text><text text-decoration="none" x="47.43" fill="#4b4b4b" font-size="10pt" font-family="lt_regular"  y="17">details</text><text text-decoration="none" x="84.43" fill="#4b4b4b" font-size="10pt" font-family="noto_regular"  y="17"></text></g></g><g id="igvAkr7YYei"><mask id="18d96" x="536" y="356" width="288" height="28" maskUnits="userSpaceOnUse"><rect x="536" y="356" width="288" height="28" fill="white" />undefined<rect x="678.27543126494" y="357.80000000000007" width="37.68" height="24.4" fill="black" /></mask><g mask="url(#18d96)"><path d="M 550,370 L 680,370 Q 689.9999999999995,370.00000000000006 689.9999999999998,370.00000000000006 L 810,370" fill="none" stroke="#004291" stroke-width="2" stroke-linecap="round" stroke-linejoin="round" stroke-dasharray="0 0"/><path d="M 810,370 L 803.0434782608696,363.50282485875704 M 810,370 L 803.0434782608696,376.49717514124296 Z" fill="rgb(255,255,255)" stroke="#004291" stroke-width="2" stroke-linecap="round" stroke-linejoin="round"/></g>undefined<g transform="translate(681.27543126494, 360.80000000000007)" width="31.68" height="18.4"><text text-decoration="none" x="0.8399999999999999" fill="#4b4b4b" font-size="10pt" font-family="lt_regular"  y="17">log&#160;</text><text text-decoration="none" x="20.84" fill="#4b4b4b" font-size="10pt" font-family="lt_regular"  y="17">in</text><text text-decoration="none" x="30.84" fill="#4b4b4b" font-size="10pt" font-family="noto_regular"  y="17"></text></g></g><g id="RMbK8W6Xwki"><mask id="5b560" x="536" y="516" width="288" height="28" maskUnits="userSpaceOnUse"><rect x="536" y="516" width="288" height="28" fill="white" />undefined<rect x="555.7769868039326" y="517.8" width="210.48" height="24.4" fill="black" /></mask><g mask="url(#5b560)"><path d="M 550,530 L 810,530" fill="none" stroke="#004291" stroke-width="2" stroke-linecap="round" stroke-linejoin="round" stroke-dasharray="0 0"/><path d="M 810,530 L 803.0434782608696,523.5028248587571 M 810,530 L 803.0434782608696,536.4971751412429 Z" fill="rgb(255,255,255)" stroke="#004291" stroke-width="2" stroke-linecap="round" stroke-linejoin="round"/></g>undefined<g transform="translate(558.7769868039326, 520.8)" width="204.48" height="18.4"><text text-decoration="none" x="2.739999999999995" fill="#4b4b4b" font-size="10pt" font-family="lt_regular"  y="17">request&#160;</text><text text-decoration="none" x="49.739999999999995" fill="#4b4b4b" font-size="10pt" font-family="lt_regular"  y="17">to&#160;</text><text text-decoration="none" x="64.74" fill="#4b4b4b" font-size="10pt" font-family="lt_regular"  y="17">modify/remove&#160;</text><text text-decoration="none" x="157.74" fill="#4b4b4b" font-size="10pt" font-family="lt_regular"  y="17">account</text><text text-decoration="none" x="201.74" fill="#4b4b4b" font-size="10pt" font-family="noto_regular"  y="17"></text></g></g><g id="JtFzrnvKWu0"><mask id="f5bfa" x="536" y="276" width="578" height="28" maskUnits="userSpaceOnUse"><rect x="536" y="276" width="578" height="28" fill="white" />undefined<rect x="797.2046782456935" y="277.79999999999995" width="92.62" height="24.4" fill="black" /></mask><g mask="url(#f5bfa)"><path d="M 550,290 L 825,290 Q 834.9999999999993,289.99999999999994 834.9999999999997,289.99999999999994 L 1100,290" fill="none" stroke="#004291" stroke-width="2" stroke-linecap="round" stroke-linejoin="round" stroke-dasharray="0 0"/><path d="M 550,290 L 556.9565217391304,296.49717514124296 M 550,290 L 556.9565217391304,283.50282485875704 Z" fill="rgb(255,255,255)" stroke="#004291" stroke-width="2" stroke-linecap="round" stroke-linejoin="round"/></g>undefined<g transform="translate(800.2046782456935, 280.79999999999995)" width="86.62" height="18.4"><text text-decoration="none" x="1.8100000000000023" fill="#4b4b4b" font-size="10pt" font-family="lt_regular"  y="17">create&#160;</text><text text-decoration="none" x="40.81" fill="#4b4b4b" font-size="10pt" font-family="lt_regular"  y="17">account</text><text text-decoration="none" x="84.81" fill="#4b4b4b" font-size="10pt" font-family="noto_regular"  y="17"></text></g></g><g id="BdVo3zrpCzM"><mask id="19412" x="538" y="447" width="288" height="28" maskUnits="userSpaceOnUse"><rect x="538" y="447" width="288" height="28" fill="white" />undefined<rect x="639.3212090344365" y="448.8" width="79.49" height="24.4" fill="black" /></mask><g mask="url(#19412)"><path d="M 552,461 L 812,461" fill="none" stroke="#004291" stroke-width="2" stroke-linecap="round" stroke-linejoin="round" stroke-dasharray="0 0"/><path d="M 552,461 L 558.9565217391304,467.49717514124296 M 552,461 L 558.9565217391304,454.50282485875704 Z" fill="rgb(255,255,255)" stroke="#004291" stroke-width="2" stroke-linecap="round" stroke-linejoin="round"/></g>undefined<g transform="translate(642.3212090344365, 451.8)" width="73.49" height="18.4"><text text-decoration="none" x="1.2449999999999974" fill="#4b4b4b" font-size="10pt" font-family="lt_regular"  y="17">authenticate</text><text text-decoration="none" x="72.245" fill="#4b4b4b" font-size="10pt" font-family="noto_regular"  y="17"></text></g></g><g id="iyRYTADNhe9"><mask id="6c3e3" x="536" y="616" width="578" height="30" maskUnits="userSpaceOnUse"><rect x="536" y="616" width="578" height="30" fill="white" />undefined<rect x="789.9434313394748" y="617.8" width="139.23" height="24.4" fill="black" /></mask><g mask="url(#6c3e3)"><path d="M 550,632 L 814.9999999999998,632 Q 815.9999999999998,632 825,631 Q 833.9999999999998,630 834.9999999999998,630 L 1100,630" fill="none" stroke="#004291" stroke-width="2" stroke-linecap="round" stroke-linejoin="round" stroke-dasharray="0 0"/><path d="M 550,632 L 556.9565217391304,638.4971751412429 M 550,632 L 556.9565217391304,625.5028248587571 Z" fill="rgb(255,255,255)" stroke="#004291" stroke-width="2" stroke-linecap="round" stroke-linejoin="round"/></g>undefined<g transform="translate(792.9434313394748, 620.8)" width="133.23" height="18.4"><text text-decoration="none" x="2.614999999999995" fill="#4b4b4b" font-size="10pt" font-family="lt_regular"  y="17">update/delete&#160;</text><text text-decoration="none" x="86.615" fill="#4b4b4b" font-size="10pt" font-family="lt_regular"  y="17">account</text><text text-decoration="none" x="130.615" fill="#4b4b4b" font-size="10pt" font-family="noto_regular"  y="17"></text></g></g><g id="8bG3UUepyFd"><mask id="092c7" x="816" y="516" width="298" height="28" maskUnits="userSpaceOnUse"><rect x="816" y="516" width="298" height="28" fill="white" />undefined<rect x="907.7114190388844" y="517.8" width="100.23" height="24.4" fill="black" /></mask><g mask="url(#092c7)"><path d="M 830,530 L 1100,530" fill="none" stroke="#004291" stroke-width="2" stroke-linecap="round" stroke-linejoin="round" stroke-dasharray="0 0"/><path d="M 1100,530 L 1093.0434782608695,523.5028248587571 M 1100,530 L 1093.0434782608695,536.4971751412429 Z" fill="rgb(255,255,255)" stroke="#004291" stroke-width="2" stroke-linecap="round" stroke-linejoin="round"/></g>undefined<g transform="translate(910.7114190388844, 520.8)" width="94.23" height="18.4"><text text-decoration="none" x="1.115000000000002" fill="#4b4b4b" font-size="10pt" font-family="lt_regular"  y="17">forward&#160;</text><text text-decoration="none" x="49.115" fill="#4b4b4b" font-size="10pt" font-family="lt_regular"  y="17">request</text><text text-decoration="none" x="93.11500000000001" fill="#4b4b4b" font-size="10pt" font-family="noto_regular"  y="17"></text></g></g><g id="LWTBCxapzOX"><g transform="translate(760.0000000000001 140)"><rect x="0" y="0" width="113.33333333333329" height="46.8" fill="rgb(255,255,255)" stroke="#08415F" stroke-width="2" stroke-linecap="round" stroke-linejoin="round" stroke-dasharray="0 0"/><path d="M 56.66666666666664,46.8 L 56.66666666666664,709.9999999999999" fill="rgb(255,255,255)" stroke="#08415F" stroke-width="2" stroke-linecap="round" stroke-linejoin="round" stroke-dasharray="3 3"/><rect x="0" y="0" width="113.33333333333329" height="709.9999999999999" fill="rgba(255,255,255,0.01)" stroke="rgba(255,255,255,0.01)" stroke-width="2" stroke-linecap="round" stroke-linejoin="round" stroke-dasharray="3 3"/></g><g transform="translate(790.7366666666668, 145) rotate(0, 25.93, 0)" width="51.86" height="36.8"><text text-decoration="none" x="4.43" fill="#08415F" font-weight="bold" font-size="10pt" font-family="lt_regular"  y="14">System&#160;</text><text text-decoration="none" x="0.9299999999999997" fill="#08415F" font-weight="bold" font-size="10pt" font-family="lt_regular"  y="36">Manager</text><text text-decoration="none" x="50.93" fill="#4b4b4b" font-size="10pt" font-family="noto_regular"  y="36"></text></g></g></svg>